Coordinates
version=1
nRows=24
nColumns=24
inDegrees=yes

Units are S.I. units (second, meters, Newtons, ...)
Angles are in degrees.

endheader
time	pelvis_tilt	pelvis_list	pelvis_rotation	pelvis_tx	pelvis_ty	pelvis_tz	hip_flexion_r	hip_adduction_r	hip_rotation_r	knee_angle_r	ankle_angle_r	subtalar_angle_r	mtp_angle_r	hip_flexion_l	hip_adduction_l	hip_rotation_l	knee_angle_l	ankle_angle_l	subtalar_angle_l	mtp_angle_l	lumbar_extension	lumbar_bending	lumbar_rotation
      1.04400000	     -6.32516568	     -4.72593901	     -3.36101210	     -0.14883748	      0.97114792	      0.32473771	     -7.70200509	      8.45988377	     -2.95372108	     -9.67731320	     12.69630008	     -0.85222641	      1.54815991	     28.30147608	     -3.53865789	     -7.44366193	      2.46411544	     -2.22432440	      1.25722260	     -0.06925945	      1.68069665	      8.75962256	      7.86609170
      1.04816667	     -6.38759552	     -4.64522869	     -3.40389493	     -0.14298872	      0.97053158	      0.32454697	     -7.73016431	      8.32924692	     -2.89730156	    -10.17845519	     12.72020808	     -0.90885890	      1.59964106	     28.30892063	     -3.41947102	     -7.42329418	      2.42580491	     -2.45393627	      1.02037380	     -0.04621852	      1.78321549	      8.64264986	      7.92423594
      1.05233333	     -6.43651390	     -4.57400444	     -3.43708304	     -0.13713084	      0.96998520	      0.32433150	     -7.75195365	      8.20700478	     -2.86110243	    -10.71314046	     12.67399863	     -0.99278635	      1.69516230	     28.30111662	     -3.30883720	     -7.32204404	      2.32223761	     -2.72123425	      0.60461518	      0.01553478	      1.87462232	      8.56052521	      7.96511891
      1.05650000	     -6.49107323	     -4.47627364	     -3.45322361	     -0.13122550	      0.96949240	      0.32410944	     -7.76096502	      8.06187360	     -2.81650997	    -11.25557507	     12.59991576	     -1.11882597	      1.79585429	     28.31445337	     -3.17170065	     -7.23445985	      2.12626186	     -3.03018362	      0.20237628	      0.09360528	      1.98024165	      8.43215063	      7.96272537
      1.06066667	     -6.54966055	     -4.36638762	     -3.46470442	     -0.12529414	      0.96905245	      0.32387672	     -7.74393072	      7.90458186	     -2.77578127	    -11.83537500	     12.49051360	     -1.27344195	      1.91538782	     28.33039925	     -3.02455915	     -7.10669829	      1.87497521	     -3.37768563	     -0.28014351	      0.19502456	      2.09515967	      8.29106013	      7.95725885
      1.06483333	     -6.59746158	     -4.22075307	     -3.46012397	     -0.11929071	      0.96868890	      0.32364500	     -7.72545387	      7.71217632	     -2.74517983	    -12.43596772	     12.33116993	     -1.44512015	      1.98536701	     28.33940911	     -2.84169316	     -7.02201344	      1.56140870	     -3.73616319	     -0.65449176	      0.25697602	      2.21651977	      8.08459374	      7.93211479
      1.06900000	     -6.68466743	     -4.11959103	     -3.44404469	     -0.11335329	      0.96831469	      0.32336447	     -7.63657913	      7.57136587	     -2.70638927	    -13.08139923	     12.18375095	     -1.63858271	      2.12573470	     28.40531952	     -2.69775708	     -6.76912433	      1.18406362	     -4.19390383	     -1.37640385	      0.38019846	      2.36352596	      7.96615322	      7.91494170
      1.07316667	     -6.74047343	     -3.98336629	     -3.41527704	     -0.10734835	      0.96804130	      0.32307508	     -7.56063584	      7.39111427	     -2.69247396	    -13.76044219	     11.96967728	     -1.83765565	      2.29495385	     28.43036637	     -2.51655317	     -6.54245411	      0.77973934	     -4.65702284	     -2.01910688	      0.52751224	      2.48774882	      7.79009348	      7.87261661
      1.07733333	     -6.80882435	     -3.84049904	     -3.37869156	     -0.10132364	      0.96780827	      0.32276732	     -7.44113621	      7.20425725	     -2.68899926	    -14.49227849	     11.71919942	     -2.04630245	      2.49102959	     28.47365510	     -2.32772303	     -6.30113515	      0.33222332	     -5.13340718	     -2.67436224	      0.68686964	      2.62751525	      7.60239842	      7.82588079
      1.08150000	     -6.87603168	     -3.69083891	     -3.32760020	     -0.09527448	      0.96762969	      0.32244935	     -7.30211591	      7.01255660	     -2.69403885	    -15.25363410	     11.42352366	     -2.27022467	      2.70067988	     28.52279502	     -2.12869670	     -6.05266903	     -0.15487981	     -5.63571406	     -3.33280789	      0.84241588	      2.78170131	      7.39757599	      7.77467323
      1.08566667	     -6.91552596	     -3.51999213	     -3.26019140	     -0.08918522	      0.96753380	      0.32206887	     -7.15479254	      6.78352811	     -2.78434131	    -16.06918254	     10.98153518	     -2.46543672	      6.59673053	     28.53640895	     -1.89908559	     -5.79115207	     -0.65147737	     -6.16108987	     -4.01516493	      3.46075990	      2.89443944	      7.17350970	      7.68614903
      1.08983333	     -7.00378894	     -3.36625275	     -3.20326087	     -0.08312563	      0.96744400	      0.32172907	     -6.93079519	      6.59034670	     -2.77018234	    -16.93223410	     10.61495159	     -2.77124600	      6.64115774	     28.61842923	     -1.69703201	     -5.54493059	     -1.20155320	     -6.67473626	     -4.64714995	      3.44062707	      3.07190858	      6.96658319	      7.64589219
      1.09400000	     -7.07990694	     -3.19816060	     -3.13299593	     -0.07704784	      0.96741769	      0.32134661	     -6.67934280	      6.37352633	     -2.80990296	    -17.85909735	     10.17472963	     -3.01530987	      6.73234316	     28.67621885	     -1.47221532	     -5.25173035	     -1.74685265	     -7.17308768	     -5.30599948	      3.42620093	      3.23395305	      6.74843235	      7.57468263
      1.09816667	     -7.15091967	     -3.02429741	     -3.05183386	     -0.07096076	      0.96744626	      0.32093750	     -6.39965115	      6.14683656	     -2.87093931	    -18.83638492	      9.67668395	     -3.23893328	      6.86638718	     28.73056673	     -1.23639842	     -4.96152091	     -2.30823774	     -7.66235730	     -5.93854125	      3.41415119	      3.39165396	      6.51896112	      7.49659348
      1.10233333	     -7.22675706	     -2.84308857	     -2.96846427	     -0.06487468	      0.96751829	      0.32051340	     -6.07410684	      5.90821023	     -2.94308074	    -19.87734118	      9.12200755	     -3.46764443	      7.04763452	     28.78716225	     -0.99232303	     -4.67145996	     -2.87562718	     -8.12706322	     -6.54506781	      3.40142136	      3.55848994	      6.28582628	      7.42009152
      1.10650000	     -7.29250101	     -2.65251104	     -2.88058434	     -0.05877894	      0.96765120	      0.32006998	     -5.72182241	      5.65343623	     -3.03193775	    -20.97469515	      8.50134514	     -3.68884054	      7.26107197	     28.82686828	     -0.73640430	     -4.39306448	     -3.44150221	     -8.56302119	     -7.10161189	      3.38602462	      3.71570794	      6.03232934	      7.34043043
      1.11066667	     -7.36464311	     -2.45621928	     -2.78992560	     -0.05269067	      0.96782103	      0.31961511	     -5.32261055	      5.38861902	     -3.12823804	    -22.13056970	      7.82001422	     -3.90527738	      7.52115763	     28.87230583	     -0.47372432	     -4.11945795	     -4.01499809	     -8.95640634	     -7.63540236	      3.36544935	      3.87879359	      5.77756163	      7.26059743
      1.11483333	     -7.41737644	     -2.24888283	     -2.69421231	     -0.04660690	      0.96805290	      0.31912662	     -4.90627785	      5.10227650	     -3.24337549	    -23.33928640	      7.06958741	     -4.11420872	      7.83131098	     28.88916549	     -0.19469339	     -3.85088483	     -4.57924132	     -9.31218751	     -8.13844008	      3.33752053	      4.01953001	      5.51254071	      7.17793854
      1.11900000	     -7.39081403	     -2.01288355	     -2.55476199	     -0.04047521	      0.96841826	      0.31854022	     -4.55415190	      4.75893614	     -3.47639298	    -24.55502026	      6.13313494	     -4.28835921	     13.88458753	     28.80914216	      0.14129618	     -3.53743522	     -5.13099848	     -9.57645721	     -8.67218042	      2.83992795	      4.06604362	      5.19620261	      7.08428630
      1.12316667	     -7.48971507	     -1.79561673	     -2.49899659	     -0.03445118	      0.96867721	      0.31811002	     -3.99420346	      4.45756284	     -3.52900932	    -25.90594480	      5.29132825	     -4.59167552	     13.93059615	     28.87073165	      0.40492194	     -3.38663494	     -5.70086806	     -9.82901959	     -8.98684142	      2.82942455	      4.25920018	      4.92548064	      7.02018776
      1.12733333	     -7.52264900	     -1.56834090	     -2.40324910	     -0.02840809	      0.96903810	      0.31758531	     -3.48435085	      4.12808180	     -3.65686275	    -27.27290605	      4.34140314	     -4.80716511	     14.01596207	     28.84718543	      0.70598403	     -3.17080136	     -6.24745284	    -10.01730803	     -9.35477178	      2.81117111	      4.37389256	      4.63883983	      6.95087705
      1.13150000	     -7.57232590	     -1.33812465	     -2.30463443	     -0.02241924	      0.96939890	      0.31704653	     -2.91585909	      3.79018374	     -3.78602027	    -28.69309543	      3.35318941	     -4.99497275	     14.19096838	     28.84476981	      1.01435090	     -2.94452331	     -6.80302748	    -10.17133550	     -9.80016037	      2.77399528	      4.49574975	      4.34555898	      6.87514899
      1.13566667	     -7.60346805	     -1.09634011	     -2.20941711	     -0.01643221	      0.96981414	      0.31649515	     -2.33427391	      3.42892370	     -3.92147423	    -30.15307253	      2.27189130	     -5.18441291	     14.42086843	     28.79717530	      1.33496901	     -2.73550762	     -7.31297956	    -10.27179395	    -10.16004247	      2.72410557	      4.60071136	      4.04227144	      6.80206327
      1.13983333	     -7.55910696	     -0.78759587	     -2.14145636	     -0.01041895	      0.97037133	      0.31592937	     -1.79870298	      2.96944930	     -4.05864652	    -31.65541581	      1.13108831	     -5.36945688	     17.36506035	     28.60647402	      1.72151729	     -2.54324191	     -7.70482044	    -10.41235465	    -10.62597943	      2.07678788	      4.61146418	      3.66735769	      6.70641175
